%% CONCEPT-CLASS22
classDiagram
  class VoucherTemplate {
    +identifier: String
    +state: String
  }
  class UserVoucher {
    +identifier: String
    +state: String
  }
  class OrderInfo {
    +identifier: String
    +state: String
  }
  VoucherTemplate "1" --> "0..*" UserVoucher : 关联
  UserVoucher "0..*" --> "1" OrderInfo : 产生/归属
