%% CONCEPT-CLASS12
classDiagram
  class OrderInfo {
    +identifier: String
    +state: String
  }
  class PaymentRecord {
    +identifier: String
    +state: String
  }
  class Inventory {
    +identifier: String
    +state: String
  }
  OrderInfo "1" --> "0..*" PaymentRecord : 关联
  PaymentRecord "0..*" --> "1" Inventory : 产生/归属
